# xmcd
#
# Track frame offsets:
#	150
#	15173
#	29990
#	52127
#	70134
#	83478
#	111725
#	127254
#	144147
#	159363
#	165840
#
# Disc length: 2644 seconds
#
# Revision: 1
# Processed by: cddbd v1.5.1PL2 Copyright (c) Steve Scherf et al.
# Submitted via: audiograbber 1.83.01
#
DISCID=8e0a520b
DTITLE=Alaska - 1994-08-27 - Strapps - Baltimore MD
DYEAR=1994
DGENRE=Progressive Rock
TTITLE0=For The Moment
TTITLE1=The Royal Road
TTITLE2=Hunger
TTITLE3=Do You Feel Like We Do
TTITLE4=Throw The Horse Over The Fence Some Hay (Oncet)
TTITLE5=Time
TTITLE6=Seasonal Changes
TTITLE7=Crossroads
TTITLE8=Sold Me Out Again
TTITLE9=Hope
TTITLE10=Kashmir
EXTD=
EXTT0=
EXTT1=
EXTT2=
EXTT3=
EXTT4=
EXTT5=
EXTT6=
EXTT7=
EXTT8=
EXTT9=
EXTT10=
PLAYORDER=
